<svg data-v-0dd9719b="" version="1.0" xmlns="http://www.w3.org/2000/svg" xmlns:xlink="http://www.w3.org/1999/xlink" width="100%" height="100%" viewBox="0 0 64 64" preserveAspectRatio="xMidYMid meet" color-interpolation-filters="sRGB" style="margin: auto;">
<!--    <rect x="0" y="0" width="100%" height="100%" fill="#ffffff" fill-opacity="1" class="background"></rect>-->
    <g fill="#43a756" class="basesvg" transform="translate(0,5)">
        <g fill-rule="" class="tp-name"><g transform="scale(1)">
            <g>
                <path d="M10.72 5.66Q6.7 5.66 4.71 4.32 2.73 2.99 2.67 0.07L2.67 0.07Q2.67-0.58 3.38-0.58L3.38-0.58Q3.77-0.58 5.17-0.29 6.57 0 9.75 0L9.75 0Q17.16 0 23.17-2.05 29.19-4.09 32.63-7.41 36.08-10.72 36.08-14.43L36.08-14.43Q36.08-18.98 31.33-20.57 26.59-22.16 19.24-22.16L19.24-22.16 14.43-22.1Q13.46-18.79 12.71-15.99 11.96-13.2 11.38-11.12L11.38-11.12Q9.49-4.03 8.78-1.56L8.78-1.56Q6.83-1.56 5.4-2.6 3.97-3.64 3.97-5.13L3.97-5.13Q3.97-6.31 4.62-8.13L4.62-8.13 4.88-8.91 5.72-11.51Q12.94-34 18.07-43.94L18.07-43.94Q14.82-43.23 11.38-41.34L11.38-41.34Q11.05-41.21 10.46-40.92 9.88-40.63 9.62-40.63L9.62-40.63Q8.97-40.63 8-41.57 7.02-42.51 7.02-43.16L7.02-43.16Q11.51-44.98 15.05-45.89 18.59-46.8 23.4-46.8L23.4-46.8Q29.84-46.8 34.77-44.59 39.72-42.38 39.72-36.2L39.72-36.2Q39.72-31.2 35.78-28.24 31.85-25.29 26.13-23.92L26.13-23.92Q33.48-22.95 36.79-19.96 40.11-16.96 40.11-13.46L40.11-13.46Q40.11-7.54 35.2-3.19 30.29 1.17 23.37 3.41 16.45 5.66 10.72 5.66L10.72 5.66ZM15.08-24.57Q23.53-24.89 29.15-27.79 34.77-30.68 34.77-36.73L34.77-36.73Q34.77-44.52 22.55-44.52L22.55-44.52Q18.91-37.51 15.08-24.57L15.08-24.57ZM49.79 2.86Q45.7 2.86 43.42 0.65 41.15-1.56 41.15-5L41.15-5Q41.15-8.78 43.68-13.16 46.22-17.55 50.18-20.51 54.14-23.46 57.98-23.46L57.98-23.46Q60-23.46 61.36-22.46 62.73-21.45 62.73-19.11L62.73-19.11Q62.73-15.99 60.32-13.23 57.91-10.46 54.11-8.71 50.31-6.96 46.34-6.5L46.34-6.5Q46.22-5.85 46.22-5L46.22-5Q46.22-3.31 47.16-1.63 48.1 0.07 51.22 0.07L51.22 0.07Q55.19 0.07 59.31-3.15 63.44-6.37 65.97-11.18L65.97-11.18 67.28-10.14Q64.67-4.29 59.83-0.72 54.99 2.86 49.79 2.86L49.79 2.86ZM47.06-8.91Q49.4-9.17 52.29-10.79 55.19-12.42 57.2-14.79 59.22-17.16 59.22-19.44L59.22-19.44Q59.22-20.15 58.95-20.41 58.7-20.67 58.11-20.67L58.11-20.67Q56.23-20.67 53.98-18.88 51.74-17.09 49.86-14.37 47.97-11.63 47.06-8.91L47.06-8.91Z" transform="translate(-2.6700000762939453, 46.79999923706055)"></path>
            </g>
        </g>
        </g>
    </g>
    <defs></defs>
</svg>